<?xml version="1.0" standalone="no"?>
<!DOCTYPE svg PUBLIC "-//W3C//DTD SVG 20010904//EN"
 "http://www.w3.org/TR/2001/REC-SVG-20010904/DTD/svg10.dtd">
<svg version="1.0" xmlns="http://www.w3.org/2000/svg"
 width="512.000000pt" height="512.000000pt" viewBox="0 0 512.000000 512.000000"
 preserveAspectRatio="xMidYMid meet">
<metadata>
Created by potrace 1.16, written by Peter Selinger 2001-2019
</metadata>
<g transform="translate(0.000000,512.000000) scale(0.100000,-0.100000)"
fill="#000000" stroke="none">
<path d="M4232 3470 c31 -62 33 -71 33 -175 0 -192 79 -99 -998 -1177 -561
-562 -950 -944 -977 -960 -75 -43 -153 -61 -239 -55 l-75 6 503 -503 503 -503
-39 -21 c-92 -47 -486 -54 -758 -13 -444 67 -863 249 -1215 529 -203 161 -450
439 -570 641 -23 39 -44 71 -47 71 -8 0 45 -87 108 -180 359 -526 917 -908
1529 -1045 211 -48 321 -59 565 -60 240 0 319 8 535 51 253 51 572 178 800
319 228 142 482 364 640 559 162 201 328 492 416 731 85 231 139 512 150 787
l7 160 -452 451 c-435 436 -450 450 -419 387z"/>
<path d="M1755 2775 c4 -11 14 -38 23 -60 20 -55 27 -188 12 -258 -18 -87 -73
-189 -139 -255 -161 -160 -391 -197 -600 -96 -69 34 -179 141 -214 209 -14 28
-26 46 -26 40 -1 -18 56 -109 98 -157 23 -26 70 -65 104 -88 36 -24 188 -167
360 -337 276 -275 297 -294 297 -265 0 51 21 134 47 187 18 36 99 125 292 319
146 148 258 266 247 262 -13 -4 -17 -2 -13 7 3 9 -92 110 -245 263 -138 137
-247 240 -243 229z"/>
</g>
</svg>
